<svg xmlns="http://www.w3.org/2000/svg" fill="none" viewBox="0 0 1205 397"><path fill="#000" fill-rule="evenodd" d="M1179.37 6.557c-15.68 8.534-39.74 19.857-47.69 22.446l-6.31 2.054-27.79-8.042c-15.28-4.423-28.43-8.042-29.22-8.042-1.3 0-5.09 5.733-4.31 6.506.18.176 11.12 4.224 24.32 8.996 15.35 5.55 26.63 10.267 31.29 13.087 4 2.426 8.01 4.411 8.9 4.411.89 0 3.91-1.097 6.71-2.438 2.81-1.34 10.95-4.985 18.1-8.098 15.85-6.9 31.22-14.496 42.34-20.919l8.33-4.817-5.8-5.864c-3.19-3.225-6.04-5.852-6.34-5.837-.29.014-5.93 2.965-12.53 6.557Zm-117.5 85.916c-3.02 2.426-6.43 4.431-7.57 4.456-1.13.024-5.41-.845-9.5-1.932-8.58-2.283-8.93-2.327-8.93-1.129 0 .882 17.01 8.105 19.08 8.105 1.24 0 14.9-12.135 14.91-13.25.02-1.728-2.83-.39-7.99 3.75Zm-323.471-.25c-.225.688-1.163 4.85-2.083 9.25-.921 4.4-2.185 8.509-2.81 9.131-1.221 1.217-37.822 8.482-80.635 16.006-14.575 2.562-26.661 4.79-26.858 4.952-.197.161 1.279 2.988 3.279 6.282l3.638 5.987 9.665 3.01c5.316 1.655 10.034 2.782 10.485 2.503.451-.279 1.703-2.238 2.783-4.354 2.236-4.383 1.496-4.14 21.317-7.015 7.595-1.102 21.931-3.353 31.858-5.003 9.927-1.649 18.644-2.999 19.371-2.999 2.409 0-7.616 33.266-13.572 45.038-1.639 3.24-10.171 12.005-25.338 26.032l-5.871 5.43.591-7c.324-3.85.864-11.295 1.199-16.545l.609-9.545-8.267-3.718-8.267-3.718-3.439 3.263c-9.92 9.413-20.467 22.134-28.326 34.168-4.486 6.869-4.688 6.198-2.371-7.905 2.265-13.785 2.534-13.001-5.11-14.921-3.644-.915-6.827-1.462-7.074-1.215-.246.247-1.578 6.679-2.959 14.293l-2.511 13.843-8.166 8.322c-9.881 10.071-17.447 16.201-28.517 23.108-10.973 6.847-13.123 7.52-5.495 1.723 20.492-15.577 33.821-40.269 25.972-48.118-2.956-2.955-11.854-7.535-14.642-7.535-3.643 0-7.599 2.754-13.327 9.278l-5.569 6.344-11.794 2.755a4390.076 4390.076 0 0 0-14.002 3.287c-2.075.5-2.15.329-1.25-2.809.527-1.838.958-3.847.958-4.465 0-1.486-14.059-7.74-15.06-6.699-.428.445-2.455 4.859-4.504 9.809-4.144 10.011-4.905 16.458-2.257 19.107 1.572 1.572 1.558 1.987-.223 6.505-4.951 12.56-16.214 32.231-20.757 36.25-2.075 1.836-2.114 1.824-2.787-.858-1.469-5.85 1.459-32.064 5.082-45.504.815-3.025 1.488-6.022 1.494-6.661.013-1.293-17.722-7.58-18.378-6.514-1.324 2.152-5.761 27.757-6.634 38.28-1.088 13.133-.697 20.227 1.569 28.441 1.763 6.388 4.386 8.726 12.172 10.846 7.621 2.075 9.708 1.266 16.647-6.453 8.426-9.371 21.104-33.419 25.692-48.732.697-2.327 1.757-4.62 2.356-5.095.996-.791 22.867-7.171 23.248-6.781.091.093-.957 2.829-2.329 6.08-5.48 12.982-7.63 26.436-5.049 31.589 1.711 3.416 12.432 9.08 15.718 8.304 8.625-2.036 26.994-14.383 40.751-27.393 3.438-3.251 6.363-5.912 6.5-5.912.137-.001.099 4.858-.084 10.797l-.333 10.799 7.833 1.839c4.308 1.011 8.373 2.042 9.033 2.29.705.265 2.387-2.162 4.078-5.886 6.176-13.602 28.794-50.838 30.881-50.838.499 0-.124 11.285-1.276 23.112-.469 4.808-.285 5.717 1.285 6.351 1.008.407 4.623 1.808 8.035 3.112l6.202 2.372 9.266-10.723c15.708-18.179 25.829-29.264 25.829-28.289 0 .512-1.544 10.523-3.432 22.248-5.943 36.916-6.84 44.037-6.929 55.01-.048 5.881.152 10.931.444 11.223.494.494 9.742 2.541 18.018 3.989l3.6.63.579-18.268c.325-10.243 1.7-26.841 3.131-37.786 3.425-26.2 14.79-93.735 17.186-102.122.308-1.08 2.084-1.879 5.186-2.334 7.812-1.147 43.589-7.53 45.446-8.108 1.518-.473 1.19-1.613-2.684-9.327l-4.413-8.788-19.681 4.196-19.681 4.196.596-4.346c.327-2.391.864-5.415 1.192-6.72.561-2.239.178-2.47-6.604-4.002-8.646-1.953-8.906-1.963-9.426-.376Zm165.235 16c-7.425 8.583-13.658 16.918-19.677 26.312-2.797 4.366-5.084 7.488-5.082 6.938.001-.55 1.066-4.975 2.365-9.833 1.611-6.022 2.007-8.942 1.247-9.175-.614-.188-4.893-.86-9.51-1.493-6.382-.875-8.567-.871-9.115.016-.397.642-2.458 8.213-4.581 16.826-2.123 8.612-3.995 15.857-4.158 16.099-.164.241-.988-.546-1.832-1.75-.843-1.205-2.106-2.19-2.806-2.19-.7 0-8.283 6.75-16.851 15s-15.777 15-16.02 15c-.601 0 .788-8.902 3.874-24.817 1.42-7.325 2.371-13.528 2.114-13.785-.432-.432-17.054-3.334-17.374-3.033-.079.074-3.595 7.534-7.814 16.577-11.943 25.604-25.683 48.461-32.981 54.869-5.334 4.684-5.947 4.269-5.256-3.561.774-8.757 3.678-19.536 9.748-36.19 2.695-7.392 4.798-13.528 4.673-13.636-.125-.108-4.906-.603-10.625-1.099l-10.399-.903-2.425 5.485c-6.393 14.454-10.533 32.13-10.68 45.593-.087 7.995.171 9.377 2.31 12.376 3.929 5.51 16.305 9.542 23.636 7.702 5.687-1.427 18.755-16.142 28.044-31.578 3.374-5.606 3.95-6.156 4.192-4 .735 6.561.772 6.595 9.684 8.99 7.317 1.967 8.734 2.092 10.178.897.923-.763 9.084-9.622 18.136-19.686 9.051-10.065 16.599-18.157 16.773-17.983.174.174-.292 4.809-1.035 10.299-.744 5.491-1.502 13.551-1.684 17.913l-.332 7.929 8.974 2.263c4.936 1.245 9.082 2.156 9.213 2.025.131-.132 1.875-4.943 3.875-10.693 9.043-25.991 17.357-42.759 29.109-58.704 5.647-7.662 5.632-7.655 13.816-6.313 2.744.45 5.495.623 6.115.385 2.101-.806 3.43-5.461 4.049-14.18l.616-8.689-7.152-1.227c-3.934-.674-7.781-1.226-8.549-1.226-.768 0-3.83 2.813-6.803 6.25Zm41.737-.406c-8.708 5.332-21.271 24.556-27.221 41.656-2.889 8.301-4.147 22.01-2.331 25.402 1.649 3.082 12.666 8.216 15.994 7.454 10.661-2.441 35.849-21.353 50.767-38.117l7.351-8.262-3.664-3.96-3.665-3.96-11.806 11.311c-10.81 10.357-20.692 17.823-33.175 25.066-2.612 1.516-4.75 2.561-4.75 2.323s3.586-3.213 7.97-6.611c13.178-10.215 23.416-24.574 26.112-36.623 1.149-5.135 1.09-5.816-.721-8.242-2.275-3.046-12.9-9.253-15.861-9.265-1.1-.005-3.35.818-5 1.828Zm-467.97 7.338c-4.468 20.776-16.382 52.635-29.169 78.001-7.441 14.762-8.954 17.084-13.135 20.17-2.599 1.918-6.26 5.08-8.134 7.028-1.875 1.948-3.708 3.356-4.074 3.13-.366-.226-7.765.496-16.443 1.605-8.677 1.108-15.918 1.873-16.091 1.7-.356-.358 1.891-31.471 3.526-48.816 1.004-10.655 2.397-20.474 3.638-25.641.463-1.927-.448-2.461-9.13-5.353-5.304-1.767-9.787-3.054-9.961-2.86-.748.836-5.946 11.648-9.685 20.147-2.228 5.064-5.113 11.457-6.411 14.207-1.298 2.75-7.957 17.121-14.798 31.936l-12.438 26.936-16.863 4.336c-24.556 6.315-43.94 12.386-63.553 19.903-18.592 7.127-43.046 18.345-44.256 20.303-.408.66-.48 2.241-.16 3.514.702 2.799 7.07 5.746 19.18 8.877l8.38 2.166 4.981-4.906c4.33-4.264 4.773-5.058 3.392-6.069-1.309-.957 1.738-2.541 17.292-8.986 16.586-6.872 62.371-22.844 63.182-22.041.481.477-25.87 54.764-33.638 69.3-3.901 7.297-8.479 15.285-10.175 17.75-2.646 3.846-2.828 4.484-1.285 4.502.989.011 6.595.288 12.458.615l10.66.595 3.186-4.365c1.753-2.402 7.776-13.591 13.384-24.866 9.62-19.339 13.041-26.741 26.346-57 3.023-6.875 6.115-12.996 6.871-13.603 1.423-1.143 17.246-4.878 17.898-4.225.203.203-.062 7.785-.589 16.848-1.118 19.206-1.698 70.531-.808 71.421.335.335 4.047-.147 8.25-1.07l7.642-1.679-.015-18.096c-.018-22.239 2.023-69.789 3.044-70.934.949-1.065 23.971-4.605 23.971-3.686 0 .375-2.033 4.247-4.518 8.603-9.134 16.013-13.53 32.903-10.583 40.656 2.054 5.401 12.204 9.386 17.156 6.735 2.739-1.465 10.548-13.48 17.854-27.47 6.015-11.519 18.628-38.65 21.849-47 1.698-4.403 3.893-7.416 2.829-3.884-1.148 3.812-9.571 52.496-12.091 69.884-2.865 19.77-4.029 36.408-2.684 38.356.728 1.053 18.274 5.544 18.806 4.813.068-.093.634-7.642 1.259-16.775 2.251-32.924 8.835-76.483 23.145-153.123 4.388-23.501 7.978-43.401 7.978-44.222 0-1.362-4.133-2.964-13.091-5.075-2.532-.597-2.631-.423-4.379 7.708Zm-102.748 98.857c-.621 8.503-1.203 15.575-1.293 15.715-.325.504-11.695 2.374-12.082 1.986-.219-.218 2.331-6.662 5.666-14.319 3.335-7.656 6.535-15.181 7.111-16.722.576-1.541 1.2-2.648 1.387-2.461.187.187-.168 7.297-.789 15.801Zm-238.282 1.301c-4.4 3.441-16.696 12.926-27.324 21.078l-19.324 14.821-11.186-1.609c-13.13-1.889-34.779-7.07-53.463-12.796-7.313-2.241-13.422-3.908-13.577-3.704-.765 1.011-7.626 17.852-7.626 18.722 0 3.391 49.424 16.184 73.72 19.082 14.07 1.678 16.13 1.067 22.96-6.806 3.163-3.645 14.091-14.185 24.285-23.422 10.194-9.236 20.224-18.356 22.288-20.266l3.754-3.473-2.637-3.983c-1.449-2.191-2.913-3.965-3.253-3.942-.339.023-4.217 2.858-8.617 6.298Zm745.265 60.875c-3.976 3.311-3.749 3.304-15.486.467-.413-.1-.888.524-1.054 1.387-.221 1.149 1.069 1.886 4.813 2.75 2.813.65 5.992 1.181 7.064 1.181 2.342 0 12.013-7.004 11.289-8.176-.908-1.47-2.817-.781-6.626 2.391Zm-695.722 72.773-12.339 14.988-4.102-.599c-7.415-1.084-21.956-4.408-30.247-6.914-4.479-1.355-8.529-2.461-9-2.459-.47.002-1.755 2.124-2.855 4.716s-2.135 5.022-2.301 5.398c-.868 1.979 29.926 9.728 41.99 10.566l8.689.604 15.934-15.356 15.933-15.356-3.993-5.288c-2.196-2.908-4.302-5.288-4.681-5.288-.379 0-6.242 6.745-13.028 14.988ZM.058 386.051c.293 2.879.896 3.305 9.313 6.577 4.95 1.925 9.943 3.728 11.095 4.009 2.218.54 22.405-8.966 22.405-10.551 0-.477-.695-1.445-1.544-2.15-1.276-1.059-2.189-.929-5.25.745a38008.39 38008.39 0 0 1-10.206 5.58l-6.5 3.553-9-5.387c-4.95-2.963-9.366-5.402-9.813-5.421-.448-.018-.673 1.352-.5 3.045Z" clip-rule="evenodd"/></svg>