<svg xmlns="http://www.w3.org/2000/svg" fill="none" viewBox="0 0 2940 1654"><g clip-path="url(#a)"><path fill="#fff" d="M0 0h2940v1654H0z"/><path fill="#EBF4F9" d="m54.5 1324.5 92.5-25h42l23.5-34.5 26.5-9.5 45.5 35L412 1189l77.5 35.5 36.5-25 71.5 25 144-77c29 3.83 98.9 1.5 146.5-38.5l34.5-44.5c30.333 23.17 92.1 74.5 96.5 94.5l86.5-50 35 11.5 28.5-31h58c12.67 9.67 44.6 27.1 71 19.5l108 63.5c20 7.67 74.2 13.4 131-25 23.67-2.67 76-9.9 96-17.5 25-9.5 85-17.5 144.5 0l52-9.5c16.17-6 50-20.6 56-31 6-10.4 55.17-33.67 79-44l32.5-15.5c8.83 5 46.2 3.5 125-42.5 26.17-16.667 93.2-45 152-25 9.22 3.135 16.15 5.656 21.19 7.659l69.31-7.659 33 25 38.5 42.5 21 34.5c18 15 59.4 43 81 35 10.83 10.83 36 30.2 50 21 13.33 17.33 39.3 54.7 36.5 65.5-2.8 10.8 18.17-21.17 29-38.5h13.5l25 11.5 31-11.5c14.67 12.83 49.8 38.5 73 38.5l21 13.5h123.5v460H-3.5V1334l58-9.5Z"/><path fill="#D3E6F1" d="M33 1319 .5 1330.5v331h2938V1180l-75 13.5-31-13.5-46 44.5-44.5-19-108-25.5h-94l-92.5-19-15.5 19h-96l-54-19-119.5 32.5c-88 26-162.33-10.83-188.5-32.5l-108 44.5-79 71-28.5 13.5-183-84.5c-22.8 0-176.5-8-250.5-12-40.5 63.5-221.5 114-240.5 125.5-15.2 9.2-115.333 40.83-163.5 55.5l-35-32.5-106 32.5c-14-12.4-28.833-42.17-34.5-55.5-20 0-90.333-28.33-123-42.5-66-12.4-168.833-69.5-212-96.5-30.167 26.33-95.5 82.5-115.5 96.5s-77.667 26.5-104 31l-15.5 11.5-61.5-11.5-54 23-27-11.5Z"/></g><defs><clipPath id="a"><path fill="#fff" d="M0 0h2940v1654H0z"/></clipPath></defs></svg>