<svg xmlns="http://www.w3.org/2000/svg" fill="none" viewBox="0 0 501 497"><path fill="#fff" d="M211.499 456.37c3.08.571 5.573 1.606 7.479 3.105 1.899 1.534 3.39 3.439 4.471 5.716l-3.648 2.008c-1.085-2.063-2.344-3.674-3.775-4.834-1.438-1.126-3.23-1.888-5.376-2.286-2.595-.481-4.697-.245-6.306.71-1.644.948-2.668 2.512-3.072 4.693-.334 1.799-.071 3.28.787 4.441.859 1.162 2.461 2.175 4.806 3.04l3.924 1.425c3.22 1.17 5.396 2.755 6.529 4.755 1.126 2.034 1.455 4.315.987 6.841-.604 3.253-2.138 5.546-4.605 6.879-2.467 1.332-5.586 1.649-9.358.949-5.503-1.02-9.209-3.622-11.118-7.807l3.554-2.079c.838 1.659 1.913 3.003 3.225 4.034 1.278 1.025 2.973 1.733 5.084 2.124 2.457.456 4.442.269 5.956-.56 1.508-.794 2.451-2.212 2.83-4.254.314-1.696.063-3.139-.755-4.328-.852-1.197-2.485-2.233-4.9-3.111l-3.768-1.397c-6.094-2.275-8.63-6.164-7.61-11.667.623-3.357 2.218-5.781 4.786-7.274 2.567-1.493 5.859-1.867 9.873-1.123Zm-44.522 26.891 7.963-20.639c1.026-2.659 1.703-4.756 2.031-6.29.282-1.513.105-2.864-.531-4.052-.635-1.189-1.987-2.182-4.056-2.98-2.069-.799-3.738-.971-5.007-.517-1.269.453-2.291 1.342-3.066 2.665-.82 1.343-1.743 3.345-2.769 6.005l-7.963 20.639-4.138-1.596 7.583-19.654c1.432-3.711 2.845-6.542 4.239-8.494 1.349-1.932 3.011-3.158 4.985-3.679 1.962-.489 4.469-.144 7.523 1.035 3.054 1.178 5.144 2.607 6.269 4.286 1.113 1.712 1.536 3.743 1.271 6.093-.311 2.37-1.182 5.41-2.614 9.121l-7.583 19.654-4.137-1.597Zm-22.902-50.906 3.774 2.33-19.361 31.357-11.41-7.045c-2.876-1.775-4.587-3.928-5.134-6.458-.578-2.549.012-5.246 1.769-8.091 1.571-2.546 3.503-4.167 5.793-4.862 2.261-.714 4.709-.423 7.342.872l.38-18.504 4.223 2.607-.628 18.103 4.986 3.079 8.266-13.388Zm-17.782 11.917c-1.588-.98-3.056-1.348-4.405-1.106-1.398.254-2.55 1.115-3.456 2.582l-1.442 2.336c-.906 1.468-1.15 2.868-.733 4.202.37 1.345 1.348 2.507 2.935 3.487l7.547 4.66 7.101-11.501-7.547-4.66Zm-11.001-31.548-24.795 27.264-17.187-15.63 2.594-2.852 13.905 12.647 8.348-9.179-12.734-11.581 2.593-2.851 12.734 11.58 11.261-12.382 3.281 2.984Zm-27.966-27.571-29.384 22.241-13.701-18.103 3.073-2.326 11.025 14.566 9.893-7.488-10.643-14.06 3.073-2.326 10.643 14.06 10.272-7.774-11.025-14.566 3.073-2.326 13.701 18.102Zm-24.401-36.21 1.981 3.968-32.972 16.459-5.99-11.998c-1.51-3.024-1.83-5.755-.963-8.194.852-2.471 2.774-4.453 5.765-5.947 2.677-1.336 5.172-1.696 7.486-1.081 2.298.584 4.225 2.12 5.782 4.608l10.068-15.53 2.217 4.441-10.068 15.057 2.617 5.244 14.077-7.027Zm-21.392.765c-.834-1.669-1.888-2.756-3.162-3.261-1.322-.52-2.755-.395-4.298.375l-2.456 1.227c-1.543.77-2.488 1.832-2.836 3.185-.394 1.338-.175 2.842.659 4.511l3.961 7.936 12.093-6.037-3.961-7.936Zm-2.38-81.771c.291 3.119-.023 5.8-.945 8.042-.957 2.246-2.383 4.2-4.277 5.862l-2.929-2.961c1.688-1.607 2.895-3.258 3.62-4.952.69-1.69.934-3.622.731-5.795-.245-2.628-1.047-4.586-2.405-5.873-1.36-1.322-3.145-1.88-5.353-1.674-1.822.171-3.175.827-4.058 1.97s-1.42 2.961-1.611 5.454l-.3 4.164c-.246 3.417-1.177 5.943-2.791 7.579-1.65 1.639-3.754 2.578-6.312 2.817-3.295.308-5.92-.543-7.875-2.552s-3.112-4.923-3.469-8.743c-.52-5.572.971-9.848 4.475-12.827l2.971 2.851c-1.367 1.259-2.367 2.661-3 4.205-.637 1.509-.856 3.332-.656 5.47.233 2.488.955 4.347 2.165 5.577 1.176 1.234 2.798 1.754 4.866 1.56 1.717-.16 3.036-.796 3.957-1.907.918-1.147 1.47-3.001 1.654-5.564l.315-4.006c.525-6.483 3.574-9.985 9.146-10.506 3.4-.318 6.168.554 8.305 2.617 2.137 2.063 3.396 5.127 3.776 9.192ZM5.826 223.444l32.86 3.02-.407 4.417-32.86-3.021-1.125 12.25-3.838-.353 2.658-28.916 3.838.352-1.126 12.251Zm40.447-33.153c-2.345 8.262-9.63 10.658-21.853 7.188-12.224-3.469-17.163-9.335-14.818-17.597 2.345-8.262 9.63-10.658 21.853-7.189 12.224 3.47 17.163 9.336 14.818 17.598Zm-3.708-1.053c.77-2.709.316-4.978-1.36-6.807-1.7-1.873-4.413-3.338-8.138-4.395l-5.79-1.644c-3.725-1.057-6.786-1.231-9.182-.521-2.421.667-4.016 2.355-4.785 5.063-.77 2.709-.303 5 1.397 6.873 1.676 1.83 4.376 3.273 8.1 4.33l5.791 1.644c3.725 1.057 6.797 1.252 9.219.586 2.397-.71 3.98-2.42 4.748-5.129Zm14.281-29.742-1.975 3.972-32.998-16.409 5.971-12.008c1.505-3.025 3.492-4.926 5.962-5.703 2.485-.808 5.225-.468 8.219 1.021 2.679 1.332 4.47 3.107 5.371 5.324.918 2.186.853 4.65-.196 7.391l18.461-1.316-2.21 4.444-18.084 1.032-2.609 5.247 14.088 7.005ZM43.351 142.88c.83-1.67 1.063-3.166.698-4.488-.38-1.368-1.343-2.437-2.887-3.205l-2.459-1.222c-1.544-.768-2.96-.883-4.25-.345-1.306.491-2.374 1.572-3.204 3.242l-3.95 7.942 12.103 6.018 3.949-7.942Zm30.218-13.59-2.824-2.131 5.533-7.333-23.771-17.934-5.533 7.333-2.824-2.13 13.737-18.208 2.824 2.13-5.533 7.334 23.77 17.934 5.534-7.333 2.824 2.13-13.737 18.208Zm25.087-30.625L73.817 71.44l16.772-15.3 2.598 2.847-13.496 12.311 8.362 9.166 13.028-11.884 2.597 2.847-13.027 11.885 8.682 9.517 13.496-12.312 2.597 2.847-16.772 15.301Zm39.723-30.522c-2.663 1.65-5.204 2.561-7.622 2.735-2.437.143-4.821-.263-7.153-1.22l1.347-3.94c2.191.795 4.206 1.14 6.046 1.036 1.821-.134 3.659-.776 5.514-1.926 2.245-1.39 3.641-2.98 4.189-4.768.578-1.808.283-3.654-.885-5.539-.964-1.556-2.155-2.474-3.571-2.756-1.417-.282-3.284.047-5.601.985l-3.862 1.586c-3.169 1.3-5.845 1.592-8.029.875-2.202-.747-3.979-2.213-5.333-4.398-1.742-2.812-2.149-5.541-1.221-8.187.928-2.645 3.023-4.978 6.284-6.998 4.758-2.948 9.25-3.516 13.478-1.705l-1.23 3.93c-1.736-.664-3.436-.935-5.101-.815-1.635.102-3.364.718-5.19 1.849-2.124 1.316-3.467 2.79-4.03 4.422-.581 1.602-.324 3.286.77 5.051.908 1.466 2.065 2.364 3.47 2.694 1.435.312 3.341-.02 5.718-.996l3.728-1.502c6.038-2.416 10.532-1.245 13.479 3.512 1.798 2.902 2.25 5.77 1.354 8.602-.895 2.832-3.078 5.323-6.549 7.473Zm72.36-48.653 1.271 6.798-6.746 1.262-1.272-6.799 6.747-1.261Zm78.098 20.435c-3.079-.575-5.57-1.614-7.474-3.116-1.896-1.537-3.384-3.444-4.462-5.723l3.651-2.002c1.082 2.064 2.338 3.677 3.768 4.84 1.436 1.128 3.227 1.893 5.372 2.294 2.595.485 4.697.252 6.308-.7 1.645-.946 2.671-2.509 3.079-4.688.336-1.8.076-3.28-.781-4.443-.856-1.163-2.457-2.179-4.801-3.047l-3.922-1.431c-3.218-1.175-5.391-2.763-6.521-4.765-1.123-2.036-1.448-4.317-.976-6.843.608-3.252 2.147-5.543 4.615-6.871 2.469-1.33 5.589-1.64 9.36-.936 5.501 1.03 9.203 3.637 11.105 7.825l-3.557 2.074c-.835-1.66-1.908-3.007-3.219-4.04-1.276-1.026-2.969-1.737-5.08-2.132-2.456-.46-4.442-.275-5.958.551-1.508.792-2.454 2.209-2.835 4.25-.318 1.695-.068 3.139.747 4.33.851 1.197 2.483 2.236 4.896 3.117l3.766 1.403c6.09 2.285 8.62 6.178 7.592 11.679-.628 3.356-2.227 5.778-4.797 7.267-2.57 1.489-5.862 1.858-9.876 1.107ZM333.4 13.104l-7.995 20.626c-1.031 2.659-1.711 4.754-2.041 6.287-.284 1.513-.11 2.864.524 4.054.634 1.19 1.984 2.185 4.052 2.986 2.068.801 3.736.976 5.006.525 1.27-.452 2.293-1.339 3.07-2.66.822-1.343 1.748-3.343 2.779-6.002l7.995-20.626 4.135 1.603-7.613 19.642c-1.438 3.708-2.855 6.537-4.253 8.487-1.352 1.93-3.015 3.154-4.99 3.672-1.963.485-4.47.136-7.522-1.047-3.052-1.183-5.14-2.615-6.262-4.296-1.11-1.714-1.531-3.746-1.262-6.095.315-2.37 1.191-5.409 2.628-9.117l7.614-19.642 4.135 1.603Zm22.824 50.941-3.77-2.336 19.408-31.327 11.4 7.063c2.873 1.78 4.581 3.935 5.124 6.466.573 2.55-.02 5.246-1.782 8.089-1.575 2.543-3.509 4.16-5.801 4.852-2.262.71-4.709.416-7.34-.883l-.409 18.504-4.219-2.614.657-18.102-4.982-3.086-8.286 13.374Zm17.8-11.89c1.586.983 3.054 1.354 4.403 1.114 1.399-.252 2.552-1.111 3.46-2.577l1.446-2.334c.908-1.466 1.155-2.866.739-4.2-.367-1.346-1.344-2.51-2.929-3.492l-7.541-4.672-7.118 11.49 7.54 4.672Zm10.953 31.565 24.837-27.225 17.162 15.657-2.597 2.847-13.886-12.668-8.362 9.166 12.716 11.6-2.598 2.848-12.715-11.6-11.28 12.364-3.277-2.989Zm27.923 27.615 29.419-22.195 13.673 18.123-3.077 2.322-11.002-14.583-9.905 7.472 10.621 14.077-3.077 2.322-10.62-14.078-10.284 7.759 11.002 14.583-3.077 2.321-13.673-18.123Zm24.343 36.248-1.974-3.971 32.998-16.408 5.971 12.008c1.504 3.025 1.821 5.757.95 8.195-.856 2.469-2.781 4.449-5.775 5.937-2.678 1.333-5.174 1.689-7.487 1.07-2.297-.587-4.222-2.126-5.775-4.617l-10.092 15.514-2.21-4.443 10.092-15.042-2.61-5.248-14.088 7.005Zm21.394-.732c.831 1.671 1.883 2.759 3.157 3.266 1.321.522 2.754.399 4.298-.369l2.458-1.222c1.545-.768 2.491-1.829 2.841-3.182.396-1.337.179-2.84-.651-4.511l-3.95-7.942-12.102 6.018 3.949 7.942Zm2.253 81.775c-.287-3.12.032-5.8.957-8.041.96-2.245 2.389-4.196 4.287-5.855l2.923 2.965c-1.69 1.605-2.899 3.253-3.627 4.946-.693 1.69-.94 3.621-.74 5.794.241 2.629 1.04 4.588 2.396 5.877 1.359 1.325 3.142 1.885 5.35 1.682 1.823-.167 3.177-.822 4.061-1.964.885-1.141 1.425-2.958 1.62-5.45l.307-4.164c.251-3.416 1.185-5.941 2.803-7.574 1.652-1.637 3.757-2.573 6.316-2.808 3.295-.303 5.918.552 7.87 2.564 1.953 2.012 3.104 4.928 3.456 8.748.512 5.573-.986 9.847-4.495 12.82l-2.966-2.855c1.369-1.257 2.371-2.657 3.007-4.2.639-1.508.86-3.331.663-5.469-.228-2.489-.947-4.349-2.156-5.581-1.174-1.235-2.795-1.758-4.863-1.568-1.718.158-3.038.792-3.961 1.902-.92 1.145-1.474 2.999-1.662 5.561l-.321 4.006c-.536 6.482-3.59 9.979-9.163 10.492-3.4.312-6.167-.565-8.3-2.631-2.134-2.066-3.388-5.131-3.762-9.197Zm33.259 44.544-32.855-3.072.413-4.415 32.855 3.071 1.145-12.248 3.837.359-2.703 28.912-3.837-.359 1.145-12.248Zm-40.497 33.091c2.358-8.259 9.646-10.644 21.864-7.155 12.219 3.488 17.149 9.362 14.791 17.62-2.358 8.258-9.646 10.643-21.864 7.155-12.218-3.489-17.149-9.362-14.791-17.62Zm3.706 1.058c-.773 2.707-.323 4.977 1.351 6.809 1.697 1.876 4.407 3.345 8.13 4.408l5.788 1.653c3.723 1.063 6.783 1.241 9.181.535 2.422-.663 4.02-2.349 4.793-5.056.773-2.708.311-4.999-1.387-6.875-1.673-1.832-4.371-3.28-8.094-4.343l-5.787-1.652c-3.723-1.063-6.796-1.263-9.218-.6-2.398.706-3.984 2.413-4.757 5.121Zm-14.327 29.719 1.981-3.968 32.972 16.46-5.989 11.998c-1.509 3.023-3.499 4.921-5.97 5.694-2.487.805-5.226.46-8.218-1.033-2.677-1.337-4.464-3.114-5.363-5.333-.914-2.187-.845-4.651.208-7.391l-18.464 1.287 2.217-4.44 18.086-1.003 2.617-5.244-14.077-7.027Zm13.47 16.637c-.834 1.67-1.069 3.165-.706 4.487.379 1.369 1.34 2.439 2.883 3.209l2.456 1.227c1.543.77 2.96.887 4.251.351 1.306-.489 2.375-1.568 3.209-3.237l3.961-7.936-12.093-6.037-3.961 7.936Zm-30.24 13.544 2.821 2.135-5.544 7.325 23.743 17.971 5.544-7.325 2.821 2.135-13.765 18.186-2.821-2.135 5.545-7.325-23.744-17.971-5.544 7.326-2.82-2.135 13.764-18.187Zm-25.133 30.586 24.795 27.264-16.796 15.274-2.593-2.851 13.515-12.291-8.348-9.179-13.046 11.865-2.593-2.851 13.046-11.865-8.668-9.531-13.515 12.291-2.593-2.851 16.796-15.275Zm-39.772 30.461c2.665-1.646 5.207-2.553 7.626-2.723 2.437-.14 4.821.271 7.151 1.231l-1.353 3.938c-2.19-.799-4.205-1.148-6.044-1.046-1.822.132-3.661.771-5.518 1.918-2.246 1.387-3.645 2.974-4.195 4.762-.581 1.806-.289 3.653.876 5.54.961 1.557 2.15 2.478 3.566 2.761 1.417.284 3.284-.041 5.602-.976l3.865-1.58c3.171-1.296 5.848-1.583 8.03-.862 2.201.75 3.977 2.219 5.326 4.405 1.739 2.815 2.142 5.545 1.209 8.189-.932 2.644-3.03 4.974-6.295 6.989-4.762 2.94-9.255 3.501-13.48 1.684l1.236-3.928c1.735.666 3.435.94 5.099.823 1.635-.1 3.366-.713 5.193-1.841 2.126-1.313 3.472-2.785 4.037-4.416.583-1.601.329-3.285-.762-5.052-.906-1.468-2.061-2.368-3.466-2.7-1.435-.314-3.341.015-5.719.987l-3.73 1.496c-6.043 2.407-10.534 1.23-13.474-3.532-1.794-2.905-2.241-5.773-1.341-8.604.9-2.83 3.087-5.318 6.561-7.463Zm-72.434 48.542-1.261-6.801 6.748-1.251 1.261 6.8-6.748 1.252Z"/></svg>